<svg fill="none" height="37" viewBox="0 0 139 37" width="139" xmlns="http://www.w3.org/2000/svg" xmlns:xlink="http://www.w3.org/1999/xlink"><linearGradient id="a" gradientUnits="userSpaceOnUse" x1="26.759" x2="-.927623" y1="3.24782" y2="30.9344"><stop offset=".26" stop-color="#ff1b43"/><stop offset=".71" stop-color="#be0000"/></linearGradient><linearGradient id="b" gradientUnits="userSpaceOnUse" x1="10.6895" x2="27.1272" y1="17.9725" y2="17.9725"><stop offset="0" stop-color="#b3b3b3"/><stop offset=".19" stop-color="#fff"/></linearGradient><linearGradient id="c" gradientUnits="userSpaceOnUse" x1="19.5186" x2="22.5136" y1="29.1018" y2="29.1018"><stop offset="0" stop-opacity=".25"/><stop offset="1" stop-opacity="0"/></linearGradient><path d="m27.8469 17.1532c1.0811-1.6702 1.6273-3.7602 1.6273-6.2338 0-10.9194-10.064-10.9194-13.357-10.9194-.817 0-1.95.074481-3.1598.153476-.7786.051911-1.5799.103822-2.1735.124135l-10.7839-.121878v10.203867h2.97924v24.4817l2.89573.4514c1.21878.1896 2.9183.3701 4.65393.4943l1.2278.0993h.0519c1.4084.0858 2.6655.1286 3.8369.1286h1.0428 1.0246c.7359.0066 1.4715-.0311 2.2029-.1128 1.7824-.2482 3.5034-.8245 5.076-1.6995 3.5796-2.011 5.5499-5.3469 5.5499-9.3937.0068-3.1688-.9028-5.7485-2.6948-7.6557zm-13.603-7.0757c.571-.0226 1.0766-.0361 1.458-.0361 2.6069 0 2.6069 0 2.6069 1.3384 0 1.0089-.1512 1.1511-.1806 1.1691-.3972.2438-1.8846.2438-2.5978.2438h-1.291zm4.2229 15.7651c-.5959.1558-1.4896.1558-2.3924.1558h-.2032c-.5439 0-1.1059 0-1.6498-.0361v-3.0808h1.3293c3.6586 0 3.6586.3001 3.6586 1.5595.0045.711-.4762 1.2888-.7425 1.4016z" fill="url(#a)"/><path d="m21.8932 17.582c1.2707-.4897 4.1506-1.5641 4.1506-6.6649 0-6.86125-5.1911-7.49547-9.9308-7.49547-1.2458 0-3.9384.2257-5.4168.27987v3.1598c1.0405-.09028 3.5661-.2415 5.006-.2415 2.9341 0 6.0285.1941 6.0285 4.76 0 4.8345-3.4419 4.8345-6.2 4.8345h-4.8412v3.2456h4.866c2.977 0 7.0803.0248 7.0803 4.9812 0 2.1644-1.6905 4.374-3.117 4.6607l-.1422 3.4238c4.5637-.4288 7.7506-3.1598 7.7506-7.6941 0-5.8343-3.8798-6.859-5.234-7.2495z" fill="url(#b)"/><path d="m19.5188 29.1016c-1.1443.3408-2.4511.3205-3.6473.3205-1.2958.003-2.5909-.0625-3.8798-.1963l-1.1962-.1716.0384-25.35284-7.41202-.09028v3.32682h2.97924v24.9737c1.0969.1715 2.68357.3408 4.39438.4627l1.221.0993c1.1895.0722 2.424.1219 3.6361.1219 1.3993 0 2.6926.0745 3.8662-.07z" fill="#fff"/><path d="m22.5136 31.8125-1.5686.571-1.4264.1422v-3.4239l1.5686-.9998 1.4264-2.424z" fill="url(#c)"/><g fill="#000"><path d="m53.2367 18.4535c0 2.5047-.5757 4.5197-1.7271 6.0448-1.1514 1.5149-2.6967 2.2724-4.6359 2.2724-2.0705 0-3.6713-.7322-4.8025-2.1967l-.1363 1.8937h-2.5755v-23.27019h2.8027v8.68089c1.1312-1.4039 2.6916-2.10584 4.6813-2.10584s3.5501.75244 4.6813 2.25734c1.1413 1.5049 1.712 3.5653 1.712 6.1812zm-2.8028-.3182c0-1.9089-.3686-3.3835-1.1059-4.4238s-1.7978-1.5604-3.1815-1.5604c-1.8483 0-3.1764.8585-3.9844 2.5755v7.0901c.8585 1.717 2.1967 2.5755 4.0147 2.5755 1.3433 0 2.3887-.5201 3.1361-1.5604.7473-1.0403 1.121-2.6058 1.121-4.6965z"/><path d="m66.9019 24.8467c-1.0908 1.2827-2.6917 1.924-4.8025 1.924-1.7473 0-3.0805-.505-3.9996-1.5149-.909-1.0201-1.3685-2.525-1.3787-4.5147v-10.6655h2.8028v10.5897c0 2.4846 1.01 3.7269 3.03 3.7269 2.1411 0 3.5652-.7979 4.2722-2.3937v-11.9229h2.8028v16.3921h-2.6664z"/><path d="m76.5372 24.1801h9.5899v2.2876h-13.0138v-2.0603l9.0445-12.0139h-8.9081v-2.3179h12.4229v1.9846z"/><path d="m91.9295 24.1801h9.5895v2.2876h-13.0134v-2.0603l9.0445-12.0139h-8.9081v-2.3179h12.423v1.9846z"/><path d="m110.094 22.6651 4.06-12.5895h2.864l-5.878 16.3921h-2.137l-5.938-16.3921h2.863z"/><path d="m126.305 26.7707c-2.222 0-4.03-.7272-5.424-2.1815-1.394-1.4645-2.091-3.4189-2.091-5.8631v-.515c0-1.6261.308-3.0755.924-4.3481.627-1.2827 1.495-2.2826 2.606-2.9996 1.121-.7272 2.333-1.09084 3.636-1.09084 2.131 0 3.788.70194 4.969 2.10584 1.182 1.4039 1.773 3.4138 1.773 6.0297v1.1665h-11.105c.04 1.616.51 2.9239 1.409 3.9238.909.9898 2.06 1.4847 3.454 1.4847.99 0 1.828-.202 2.515-.606s1.288-.9393 1.803-1.6059l1.712 1.3332c-1.374 2.1109-3.434 3.1663-6.181 3.1663zm-.349-14.6954c-1.131 0-2.08.4141-2.848 1.2423-.768.8181-1.242 1.9695-1.424 3.4542h8.211v-.2121c-.081-1.4241-.464-2.525-1.151-3.3027-.687-.7878-1.616-1.1817-2.788-1.1817z"/><path d="m139 26.4677h-2.803v-23.27019h2.803z"/></g></svg>